<?xml version="1.0" standalone="no"?>
<!DOCTYPE svg PUBLIC "-//W3C//DTD SVG 20010904//EN"
 "http://www.w3.org/TR/2001/REC-SVG-20010904/DTD/svg10.dtd">
<svg version="1.0" xmlns="http://www.w3.org/2000/svg"
 width="1000.000000pt" height="1000.000000pt" viewBox="0 0 1000.000000 1000.000000"
 preserveAspectRatio="xMidYMid meet">

<g transform="translate(0.000000,1000.000000) scale(0.100000,-0.100000)"
fill="#000000" stroke="none">
<path d="M2309 6831 l-29 -29 0 -251 0 -251 -276 0 c-190 0 -290 -4 -318 -12
-25 -8 -61 -32 -93 -63 -88 -86 -83 -28 -83 -1044 0 -594 4 -899 11 -924 13
-47 67 -109 117 -133 30 -16 69 -20 212 -24 l175 -5 5 -385 c5 -423 5 -419 70
-494 121 -137 319 -80 375 106 12 42 15 118 15 409 0 287 3 358 13 362 21 8
491 7 504 -1 8 -5 12 -117 15 -377 l3 -370 26 -55 c50 -106 123 -155 220 -148
84 6 133 43 179 132 l35 69 3 378 3 379 162 0 c109 1 174 5 200 14 56 20 107
64 128 110 18 39 19 83 18 956 0 739 -2 922 -13 953 -20 55 -61 103 -114 134
l-47 28 -295 5 -295 5 -5 258 -5 258 -25 19 c-24 19 -46 20 -443 20 l-419 0
-29 -29z m741 -413 c4 -230 7 -259 23 -275 16 -16 49 -18 356 -23 315 -5 340
-6 360 -24 21 -19 21 -22 21 -633 l0 -613 -1055 0 -1055 0 0 609 c0 584 1 610
19 632 l19 24 341 5 c338 5 341 5 363 28 23 22 23 27 26 277 l3 255 287 -2
287 -3 5 -257z m762 -1930 c3 -136 1 -176 -9 -188 -11 -12 -46 -16 -163 -18
l-148 -3 -4 141 c-3 141 -3 142 -31 166 -27 23 -33 24 -198 24 -103 0 -178 -4
-191 -11 -36 -19 -48 -70 -48 -199 l0 -120 -265 0 -265 0 0 134 c0 130 -1 135
-26 165 l-26 31 -179 0 -180 0 -24 -26 c-24 -26 -25 -32 -25 -165 l0 -139
-139 0 c-77 0 -151 4 -165 10 l-26 10 0 180 0 180 1054 0 1054 0 4 -172z
m-1512 -583 c0 -544 -2 -575 -41 -575 -42 0 -44 21 -47 559 -2 283 -1 520 2
528 3 8 21 13 46 13 l40 0 0 -525z m998 -10 c-3 -534 -3 -534 -25 -556 l-22
-22 -20 34 c-20 33 -21 46 -21 557 l0 522 45 0 46 0 -3 -535z"/>
<path d="M2972 6060 c-13 -6 -121 -99 -240 -207 -321 -293 -312 -284 -312
-322 0 -81 29 -95 215 -101 l150 -5 -150 -165 c-82 -91 -165 -182 -182 -203
-35 -40 -42 -81 -22 -119 14 -26 73 -50 104 -42 17 4 120 110 290 297 257 282
265 292 265 332 0 32 -6 47 -26 66 -24 22 -35 24 -165 29 l-139 5 153 139 c83
76 160 152 169 169 40 70 -36 157 -110 127z"/>
<path d="M4477 6383 c-12 -11 -8 -1220 4 -1318 35 -295 199 -503 464 -592 74
-25 93 -27 250 -28 151 0 178 3 245 23 247 77 418 256 496 517 16 54 18 123
21 733 l4 673 -118 -3 -118 -3 -5 -685 c-5 -680 -5 -685 -28 -744 -82 -218
-249 -328 -472 -313 -192 13 -340 106 -424 266 -66 126 -66 125 -66 839 l0
642 -123 0 c-68 0 -127 -3 -130 -7z"/>
<path d="M6326 6303 c-9 -49 -16 -96 -16 -105 0 -17 22 -18 315 -18 l315 0 0
-860 0 -860 130 0 130 0 0 860 0 860 312 2 313 3 17 90 c9 50 17 96 17 103 1
9 -157 12 -758 12 l-759 0 -16 -87z"/>
<path d="M8220 5425 l0 -966 128 3 127 3 0 960 0 960 -127 3 -128 3 0 -966z"/>
<path d="M4476 4214 c-11 -10 -16 -34 -16 -74 0 -40 5 -64 16 -74 14 -14 209
-16 1998 -16 1908 0 1984 1 1999 18 23 25 23 124 1 146 -14 14 -209 16 -1999
16 -1790 0 -1985 -2 -1999 -16z"/>
<path d="M5003 3828 c2 -7 10 -13 17 -13 7 0 15 6 18 13 2 7 -5 12 -18 12 -13
0 -20 -5 -17 -12z"/>
<path d="M6302 3829 c2 -6 8 -10 13 -10 5 0 11 4 13 10 2 6 -4 11 -13 11 -9 0
-15 -5 -13 -11z"/>
<path d="M4461 3803 c0 -16 3 -21 6 -13 3 8 12 21 21 28 14 10 13 12 -6 12
-18 0 -22 -6 -21 -27z"/>
<path d="M4518 3754 c3 -56 0 -79 -10 -85 -9 -6 -3 -9 17 -9 l30 0 -3 85 c-3
72 -6 85 -20 85 -15 0 -17 -10 -14 -76z"/>
<path d="M4572 3818 c9 -7 18 -20 21 -28 3 -8 6 -3 6 13 1 21 -3 27 -21 27
-19 0 -20 -2 -6 -12z"/>
<path d="M5685 3745 c0 -84 0 -85 25 -85 19 0 21 3 12 12 -7 7 -12 39 -12 73
0 34 5 66 12 73 9 9 7 12 -12 12 -25 0 -25 -1 -25 -85z"/>
<path d="M4630 3770 c-22 -22 -26 -60 -10 -91 13 -24 62 -25 81 -2 13 15 12
15 -8 3 -18 -11 -24 -12 -37 -1 -19 16 -21 82 -4 99 7 7 9 12 5 12 -4 0 -16
-9 -27 -20z"/>
<path d="M4678 3760 c4 -30 32 -43 32 -16 0 12 -25 46 -34 46 -1 0 -1 -13 2
-30z"/>
<path d="M4758 3780 c-9 -6 -19 -24 -23 -40 -13 -60 50 -107 86 -63 13 15 12
15 -8 3 -18 -11 -24 -12 -37 -1 -21 17 -21 75 0 95 17 18 8 21 -18 6z"/>
<path d="M4930 3775 c7 -8 11 -35 8 -65 -2 -39 0 -50 12 -50 12 0 14 11 11 57
-3 53 -12 72 -35 73 -5 0 -3 -7 4 -15z"/>
<path d="M5090 3770 c-39 -39 -20 -110 30 -110 16 0 31 4 34 8 2 4 -8 8 -22 7
-25 0 -27 4 -30 43 -2 24 2 50 9 58 17 21 2 17 -21 -6z"/>
<path d="M5212 3774 c-34 -24 -27 -114 9 -114 4 0 2 15 -3 34 -8 26 -7 40 5
65 8 17 15 31 13 31 -1 0 -12 -7 -24 -16z"/>
<path d="M5259 3771 c15 -27 14 -84 -1 -100 -11 -11 -10 -13 2 -9 44 13 50 96
9 118 -19 10 -20 10 -10 -9z"/>
<path d="M5336 3777 c-15 -11 -17 -17 -7 -35 6 -12 21 -27 32 -33 14 -7 19
-17 16 -30 -6 -23 6 -25 23 -4 13 16 6 32 -28 59 -15 12 -22 26 -19 37 6 23 6
23 -17 6z"/>
<path d="M5510 3770 c-22 -22 -26 -60 -10 -91 13 -24 62 -25 81 -2 13 15 12
15 -7 3 -35 -22 -54 -7 -54 43 0 24 5 48 12 55 7 7 9 12 5 12 -4 0 -16 -9 -27
-20z"/>
<path d="M5559 3763 c8 -29 31 -44 31 -20 0 14 -25 47 -35 47 -2 0 0 -12 4
-27z"/>
<path d="M5829 3781 c9 -6 12 -25 10 -65 -4 -51 -2 -56 16 -56 18 0 20 5 16
52 -3 57 -14 78 -40 78 -13 0 -13 -2 -2 -9z"/>
<path d="M5990 3781 c0 -6 5 -13 10 -16 6 -3 10 1 10 9 0 9 -4 16 -10 16 -5 0
-10 -4 -10 -9z"/>
<path d="M6088 3779 c6 -7 12 -21 12 -31 0 -10 5 -18 10 -18 19 0 10 39 -12
51 -19 9 -21 9 -10 -2z"/>
<path d="M6218 3783 c8 -3 12 -26 12 -64 0 -50 3 -59 18 -59 14 0 16 8 13 52
-3 57 -14 78 -40 77 -10 0 -11 -2 -3 -6z"/>
<path d="M6314 3783 c-7 -2 -10 -20 -6 -48 3 -28 0 -50 -8 -60 -10 -13 -9 -15
11 -15 22 0 24 3 21 48 -4 72 -6 79 -18 75z"/>
<path d="M6428 3778 c7 -7 12 -20 12 -30 0 -10 5 -18 10 -18 6 0 10 8 10 18 0
20 -18 42 -34 42 -6 0 -5 -5 2 -12z"/>
<path d="M6554 3774 c2 -10 8 -20 15 -22 8 -3 12 3 9 14 -4 23 -27 31 -24 8z"/>
<path d="M6610 3770 c-27 -27 -24 -92 4 -103 10 -4 12 7 8 44 -3 31 0 54 8 64
18 22 3 18 -20 -5z"/>
<path d="M6656 3780 c18 -24 23 -59 14 -90 -9 -32 0 -39 19 -16 21 25 9 87
-19 105 -20 13 -23 13 -14 1z"/>
<path d="M6742 3778 c-18 -18 -15 -32 18 -63 17 -16 28 -35 25 -43 -3 -8 0
-12 7 -10 26 9 20 46 -12 70 -20 15 -30 29 -27 40 6 21 5 22 -11 6z"/>
<path d="M4806 3773 c-11 -11 -6 -23 9 -23 8 0 15 4 15 9 0 13 -16 22 -24 14z"/>
<path d="M4858 3720 c-3 -54 -1 -60 17 -60 18 0 20 6 17 60 -3 41 -8 60 -17
60 -9 0 -14 -19 -17 -60z"/>
<path d="M5005 3720 c0 -57 1 -60 25 -60 19 0 21 3 12 12 -7 7 -12 34 -12 60
0 32 -4 48 -12 48 -9 0 -13 -19 -13 -60z"/>
<path d="M5140 3765 c0 -8 5 -15 10 -15 6 0 10 7 10 15 0 8 -4 15 -10 15 -5 0
-10 -7 -10 -15z"/>
<path d="M5386 3765 c4 -8 8 -15 10 -15 2 0 4 7 4 15 0 8 -4 15 -10 15 -5 0
-7 -7 -4 -15z"/>
<path d="M5765 3720 c0 -47 3 -60 15 -60 21 0 21 114 -1 118 -11 2 -14 -11
-14 -58z"/>
<path d="M5907 3773 c-11 -10 -8 -53 3 -53 6 0 8 -10 4 -24 -5 -22 -2 -25 31
-32 29 -5 36 -10 32 -25 -3 -12 0 -16 9 -12 19 7 18 49 -2 57 -9 3 -27 6 -41
6 -21 0 -23 3 -14 14 9 11 9 16 1 21 -7 4 -10 18 -7 31 4 23 -3 31 -16 17z"/>
<path d="M5954 3746 c0 -24 3 -33 13 -29 17 7 17 63 1 63 -8 0 -13 -14 -14
-34z"/>
<path d="M6040 3764 c-8 -8 -13 -28 -13 -44 0 -16 5 -36 13 -44 13 -17 65 -22
74 -7 3 4 -5 6 -18 4 -31 -6 -48 23 -41 71 5 40 3 43 -15 20z"/>
<path d="M6155 3720 c0 -56 1 -60 24 -60 19 0 21 3 12 13 -6 9 -9 33 -5 60 4
41 3 47 -13 47 -15 0 -18 -9 -18 -60z"/>
<path d="M6381 3766 c-16 -20 -17 -72 -1 -91 13 -16 65 -21 74 -6 3 4 -5 6
-18 4 -31 -6 -48 23 -41 71 5 40 3 43 -14 22z"/>
<path d="M6495 3720 c0 -56 2 -60 23 -60 16 0 21 4 15 13 -4 6 -8 32 -8 57 0
32 -4 46 -15 48 -12 2 -15 -10 -15 -58z"/>
<path d="M6796 3765 c4 -8 8 -15 10 -15 2 0 4 7 4 15 0 8 -4 15 -10 15 -5 0
-7 -7 -4 -15z"/>
<path d="M5320 3683 c0 -11 7 -20 15 -20 12 0 12 3 3 16 -7 9 -14 18 -15 20
-2 2 -3 -5 -3 -16z"/>
<path d="M6730 3680 c0 -11 4 -20 9 -20 5 0 7 9 4 20 -3 11 -7 20 -9 20 -2 0
-4 -9 -4 -20z"/>
<path d="M5894 3649 c-3 -6 -1 -16 5 -22 8 -8 11 -5 11 11 0 24 -5 28 -16 11z"/>
</g>
</svg>
